<svg width="21" height="21" viewBox="0 0 21 21" fill="none" xmlns="http://www.w3.org/2000/svg">
<path fill-rule="evenodd" clip-rule="evenodd" d="M1.00777 0.0949599C0.920926 0.118027 0.763288 0.213146 0.657515 0.306264C0.32173 0.601921 0.336026 0.411683 0.336026 4.58683C0.336026 7.26093 0.349641 8.31698 0.386019 8.46139C0.454648 8.73406 0.753587 9.03308 1.02619 9.10173C1.17055 9.13811 2.22633 9.15173 4.89972 9.15173C9.0718 9.15173 8.88374 9.16582 9.178 8.83139C9.27688 8.71908 9.36576 8.5625 9.39367 8.4516C9.46047 8.18637 9.46047 1.00951 9.39367 0.74428C9.36576 0.633371 9.27688 0.476798 9.178 0.364485C8.88314 0.0293767 9.07644 0.0435488 4.87023 0.0485282C2.58305 0.051252 1.10528 0.068999 1.00777 0.0949599ZM11.8999 0.0949599C11.8131 0.118027 11.6555 0.213146 11.5497 0.306264C11.2139 0.601921 11.2282 0.411683 11.2282 4.58683C11.2282 7.26093 11.2418 8.31698 11.2782 8.46139C11.3468 8.73406 11.6458 9.03308 11.9184 9.10173C12.0627 9.13811 13.1185 9.15173 15.7919 9.15173C19.964 9.15173 19.7759 9.16582 20.0702 8.83139C20.169 8.71908 20.2579 8.5625 20.2858 8.4516C20.3526 8.18637 20.3526 1.00951 20.2858 0.74428C20.2579 0.633371 20.169 0.476798 20.0702 0.364485C19.7753 0.0293767 19.9686 0.0435488 15.7624 0.0485282C13.4752 0.051252 11.9975 0.068999 11.8999 0.0949599ZM7.61165 4.59794V7.3217H4.88861H2.16557V4.59794V1.87417H4.88861H7.61165V4.59794ZM18.5038 4.59794V7.3217H15.7808H13.0577V4.59794V1.87417H15.7808H18.5038V4.59794ZM1.00777 10.99C0.920926 11.0131 0.763288 11.1082 0.657515 11.2013C0.32173 11.497 0.336026 11.3067 0.336026 15.4819C0.336026 18.156 0.349641 19.212 0.386019 19.3564C0.454648 19.6291 0.753587 19.9281 1.02619 19.9968C1.17055 20.0332 2.22633 20.0468 4.89972 20.0468C9.0718 20.0468 8.88374 20.0609 9.178 19.7264C9.27688 19.6141 9.36576 19.4576 9.39367 19.3467C9.46047 19.0814 9.46047 11.9046 9.39367 11.6393C9.36576 11.5284 9.27688 11.3719 9.178 11.2595C8.88314 10.9244 9.07644 10.9386 4.87023 10.9436C2.58305 10.9463 1.10528 10.9641 1.00777 10.99ZM15.2489 10.9876C14.5498 11.0759 13.8091 11.3546 13.2227 11.75C12.847 12.0033 12.3348 12.5098 12.0768 12.8831C10.9735 14.4795 10.9747 16.5083 12.0799 18.1074C12.3333 18.4741 12.8831 19.0166 13.2408 19.2529C14.5831 20.1395 16.2642 20.2734 17.6732 19.6058C18.686 19.1259 19.4128 18.4006 19.8867 17.3968C20.3403 16.4363 20.4351 15.3784 20.1624 14.3226C20.0505 13.8896 19.68 13.1272 19.4075 12.7692C18.639 11.7598 17.5132 11.1274 16.2275 10.9829C15.7929 10.9341 15.6676 10.9347 15.2489 10.9876ZM7.61165 15.493V18.2168H4.88861H2.16557V15.493V12.7692H4.88861H7.61165V15.493ZM16.3552 12.833C17.1261 12.9944 17.8419 13.5484 18.1974 14.2588C18.7394 15.3422 18.5468 16.5488 17.6939 17.4123C16.6376 18.4816 14.9335 18.481 13.8635 17.4107C12.7942 16.341 12.7927 14.6426 13.8603 13.5802C14.5324 12.9113 15.4361 12.6407 16.3552 12.833Z" fill="#62738D"/>
<rect x="13" y="1" width="6" height="7" fill="#62738D"/>
<rect x="2" y="1" width="6" height="7" fill="#62738D"/>
<rect x="2" y="12" width="6" height="7" fill="#62738D"/>
<circle cx="15.5" cy="15.5" r="3.5" fill="#62738D"/>
</svg>
