<svg width="19" height="19" viewBox="0 0 19 19" fill="none" xmlns="http://www.w3.org/2000/svg">
<path fill-rule="evenodd" clip-rule="evenodd" d="M9.14767 0.520711C7.03749 0.725865 5.09562 1.64147 3.60774 3.13273C2.20595 4.53775 1.35946 6.23533 1.04688 8.26834C0.959633 8.83573 0.959633 10.1663 1.04688 10.7337C1.35967 12.7681 2.21327 14.4784 3.61243 15.874C5.0176 17.2756 6.71538 18.122 8.74862 18.4346C9.31607 18.5218 10.6468 18.5218 11.2143 18.4346C13.2489 18.1218 14.9593 17.2683 16.3551 15.8693C17.7569 14.4643 18.6034 12.7667 18.916 10.7337C19.0033 10.1663 19.0033 8.83573 18.916 8.26834C18.6032 6.23399 17.7496 4.52369 16.3505 3.12805C14.9548 1.73586 13.2367 0.875583 11.2495 0.573892C10.8094 0.507081 9.60216 0.476545 9.14767 0.520711ZM11.1086 1.77164C12.4231 1.96901 13.6201 2.4712 14.6986 3.2778C15.1316 3.60168 15.8815 4.35151 16.2054 4.78442C17.263 6.19824 17.7802 7.74713 17.7802 9.50103C17.7802 11.2549 17.263 12.8038 16.2054 14.2176C15.8815 14.6505 15.1316 15.4004 14.6986 15.7243C13.2846 16.7818 11.7355 17.2989 9.98145 17.2989C8.22735 17.2989 6.67828 16.7818 5.26431 15.7243C4.83134 15.4004 4.08143 14.6505 3.75751 14.2176C2.69985 12.8038 2.18267 11.2549 2.18267 9.50103C2.18267 8.52626 2.31172 7.75442 2.61845 6.89478C3.01722 5.77719 3.60834 4.84856 4.46839 3.9886C5.3691 3.08804 6.3438 2.48286 7.52721 2.08953C8.13481 1.88758 8.63696 1.78597 9.43548 1.70349C9.7117 1.67496 10.745 1.71705 11.1086 1.77164ZM14.0846 6.06825C14.0262 6.09706 12.7583 7.34073 11.267 8.83193L8.5556 11.5432L7.25197 10.2434C6.14983 9.14443 5.92573 8.93692 5.80203 8.90074C5.53384 8.82231 5.24388 8.94174 5.11538 9.18349C5.03718 9.3306 5.02982 9.60707 5.10055 9.74052C5.17808 9.88686 8.22456 12.9085 8.33703 12.9506C8.47972 13.0041 8.6644 12.9964 8.79441 12.9316C8.92678 12.8656 14.7877 7.02777 14.8622 6.88774C14.9425 6.73664 14.9274 6.43383 14.8324 6.29298C14.6692 6.05071 14.3279 5.94818 14.0846 6.06825Z" fill="#6C6C6C"/>
</svg>
