<svg width="20" height="21" viewBox="0 0 20 21" fill="none" xmlns="http://www.w3.org/2000/svg">
<path fill-rule="evenodd" clip-rule="evenodd" d="M12.2155 1.02637C11.1311 1.21009 10.3395 2.28783 10.4916 3.37333C10.738 5.13152 12.8 5.83839 14.0289 4.58595C14.5576 4.04713 14.7505 3.3227 14.5629 2.58027C14.4651 2.19341 14.3078 1.92469 13.9967 1.61314C13.5274 1.14317 12.8476 0.91925 12.2155 1.02637ZM13.0832 2.04261C13.8191 2.40148 13.9675 3.39946 13.372 3.98519C12.8115 4.53666 11.8632 4.37016 11.4886 3.65452C11.4034 3.49173 11.3914 3.42566 11.391 3.11634C11.3905 2.81878 11.4039 2.73712 11.4765 2.59337C11.7892 1.97439 12.467 1.74208 13.0832 2.04261ZM10.3637 5.62C9.66807 5.74824 8.97622 6.19697 8.58368 6.7745C8.43564 6.99226 8.24125 7.42436 8.18409 7.66272C7.99117 8.46695 7.99062 10.3592 8.1831 11.0983C8.22798 11.2706 8.44389 11.5231 8.63494 11.6265L8.78686 11.7087L13.4347 11.7273L18.0825 11.7458L15.9872 15.4296L13.8919 19.1134H11.8938H9.89583L9.92175 18.9185C10.0446 17.9949 9.99007 16.521 9.80943 15.8843C9.50647 14.8163 8.50447 13.9779 7.43184 13.8949C7.21791 13.8784 7.15444 13.8871 7.06339 13.9457C7.00288 13.9846 6.62618 14.2947 6.22626 14.6349C5.82634 14.975 5.48344 15.2533 5.46422 15.2533C5.44501 15.2533 5.09566 14.9635 4.68789 14.6094C4.28009 14.2552 3.91042 13.9463 3.86638 13.9227C3.75941 13.8657 3.56077 13.8698 3.24974 13.9356C2.21093 14.1552 1.37629 14.966 1.12928 15.9956C0.902517 16.9408 0.944393 18.9754 1.2017 19.5151C1.31597 19.7547 1.51325 19.9098 1.7765 19.9672C1.9128 19.9968 3.68259 20.0052 8.05347 19.997L14.1406 19.9856L14.3288 19.88C14.4323 19.822 14.5545 19.7231 14.6004 19.6604C14.6462 19.5976 15.6371 17.8691 16.8024 15.8193C18.3613 13.0773 18.9317 12.0428 18.961 11.9047C19.0499 11.4852 18.8433 11.0789 18.4493 10.8985C18.3088 10.8341 18.1871 10.8204 17.6287 10.8064L16.9731 10.7899L16.9985 10.5627C17.0944 9.705 17.0865 8.67287 16.9784 7.968C16.7822 6.68813 15.8034 5.73684 14.5257 5.58433C14.4098 5.57049 14.2808 5.57699 14.2224 5.59959C14.1665 5.62126 13.7659 5.94124 13.3321 6.3107L12.5434 6.98242L12.0219 6.5367C11.7351 6.29158 11.3932 5.99666 11.2621 5.88134C10.8907 5.55464 10.8238 5.53519 10.3637 5.62ZM11.4793 7.23708C12.3634 7.99926 12.463 8.06235 12.6712 7.99157C12.7223 7.9742 13.1538 7.62824 13.6302 7.22279L14.4963 6.48559L14.6485 6.51019C14.7322 6.52374 14.9221 6.59393 15.0705 6.66616C15.589 6.91851 15.9633 7.41791 16.0879 8.02338C16.2016 8.57619 16.1968 10.08 16.0794 10.6973L16.06 10.7994H15.6003H15.1407L15.1677 9.74167C15.1973 8.58224 15.1898 8.52337 14.9982 8.40879C14.8563 8.32395 14.679 8.35394 14.559 8.4831C14.4738 8.57489 14.4698 8.60417 14.4467 9.30838C14.4335 9.70994 14.4212 10.2097 14.4192 10.4189L14.4157 10.7994H12.5455C11.0742 10.7994 10.6752 10.7895 10.6745 10.753C10.6741 10.7275 10.6582 10.2351 10.6392 9.65875C10.6014 8.51472 10.5934 8.47545 10.379 8.38556C10.2332 8.32443 10.0634 8.37565 9.96403 8.51079C9.89282 8.60759 9.88765 8.65688 9.89594 9.15999C9.90085 9.45944 9.91511 9.95078 9.92758 10.2519L9.95024 10.7994H9.49096H9.03167L9.01 10.6602C8.90175 9.9647 8.8866 9.0823 8.97113 8.39146C9.05774 7.68317 9.20193 7.35462 9.5885 6.98458C9.84727 6.73686 10.3107 6.50144 10.547 6.49772C10.5902 6.49702 10.973 6.80059 11.4793 7.23708ZM4.98422 9.37222C4.61902 9.46185 4.2986 9.64539 4.01537 9.92714C3.21945 10.7189 3.17079 11.9273 3.89913 12.8121C4.09538 13.0505 4.51606 13.3274 4.84671 13.4359C5.22206 13.5591 5.70885 13.5592 6.08709 13.4361C7.09841 13.1069 7.72131 12.0482 7.50746 11.0221C7.26148 9.84181 6.11779 9.09399 4.98422 9.37222ZM5.96557 10.3317C6.86981 10.7507 6.87938 12.0491 5.98163 12.5092C5.864 12.5695 5.73122 12.5985 5.51915 12.6103C5.25308 12.6251 5.19782 12.616 4.99511 12.5239C4.70699 12.393 4.43751 12.1048 4.34609 11.8298C4.16432 11.2828 4.37253 10.677 4.83699 10.4015C5.19833 10.1871 5.60001 10.1623 5.96557 10.3317ZM4.40414 15.5496C5.31619 16.3404 5.3856 16.3822 5.61816 16.2815C5.68699 16.2516 6.12021 15.906 6.58092 15.5134L7.41857 14.7995L7.57101 14.8242C7.84672 14.8687 8.23473 15.0883 8.4843 15.3409C8.9049 15.7666 9.03398 16.1628 9.09423 17.2135C9.12312 17.7173 9.09518 18.5037 9.03398 18.9092L9.00596 19.0948H8.55027H8.09458L8.11038 18.1484C8.1348 16.6892 8.1414 16.7821 8.00455 16.6584C7.85699 16.5249 7.69187 16.5189 7.54057 16.6414C7.43833 16.7242 7.42935 16.7521 7.40625 17.0588C7.39261 17.2396 7.37981 17.7382 7.37776 18.1669C7.37574 18.5956 7.36412 18.9839 7.35198 19.0299L7.32987 19.1134H5.46397H3.5981L3.59469 18.9185C3.59282 18.8114 3.58047 18.2838 3.56719 17.7463L3.5431 16.7689L3.41872 16.6565C3.31069 16.5588 3.27457 16.5467 3.14377 16.5645C3.04036 16.5785 2.96552 16.6175 2.90486 16.6888L2.81656 16.7927L2.83996 17.9542L2.86335 19.1156L2.41481 19.1052L1.9663 19.0948L1.9197 18.7608C1.85941 18.3286 1.85285 17.1945 1.90789 16.7194C2.00605 15.872 2.28185 15.3821 2.85048 15.0447C3.0485 14.9273 3.35557 14.811 3.47255 14.8091C3.51956 14.8084 3.87584 15.0916 4.40414 15.5496Z" fill="#6C6C6C" stroke="#6C6C6C" stroke-width="0.2"/>
</svg>
