<svg width="37" height="37" viewBox="0 0 37 37" fill="none" xmlns="http://www.w3.org/2000/svg">
<path d="M9.46289 15.4286L17.7912 21.44C18.1381 21.6906 18.5458 21.8243 18.9629 21.8243C19.3799 21.8243 19.7876 21.6906 20.1346 21.44L28.4629 15.4286M11.574 28H26.3518C26.9117 28 27.4487 27.7592 27.8446 27.3305C28.2405 26.9019 28.4629 26.3205 28.4629 25.7143V14.2857C28.4629 13.6795 28.2405 13.0981 27.8446 12.6695C27.4487 12.2408 26.9117 12 26.3518 12H11.574C11.0141 12 10.4771 12.2408 10.0812 12.6695C9.68531 13.0981 9.46289 13.6795 9.46289 14.2857V25.7143C9.46289 26.3205 9.68531 26.9019 10.0812 27.3305C10.4771 27.7592 11.0141 28 11.574 28Z" stroke="#2D374F" stroke-width="1.7" stroke-linecap="round" stroke-linejoin="round"/>
<circle cx="26.9629" cy="12.5" r="5.15" fill="#FF9C01" stroke="white" stroke-width="0.7"/>
</svg>
