<svg width="37" height="37" viewBox="0 0 37 37" fill="none" xmlns="http://www.w3.org/2000/svg">
<path d="M20.5353 25.5H14.4958M20.5353 25.5H25.5682L24.1539 24.095C23.964 23.9063 23.8133 23.6822 23.7106 23.4357C23.6078 23.1891 23.555 22.9249 23.555 22.658V19.5C23.5551 18.2589 23.168 17.0483 22.447 16.0349C21.7259 15.0214 20.7064 14.255 19.5287 13.841V13.5C19.5287 12.9696 19.3166 12.4609 18.939 12.0858C18.5615 11.7107 18.0494 11.5 17.5155 11.5C16.9816 11.5 16.4695 11.7107 16.092 12.0858C15.7145 12.4609 15.5024 12.9696 15.5024 13.5V13.841C13.157 14.665 11.476 16.888 11.476 19.5V22.659C11.476 23.197 11.2606 23.714 10.8771 24.095L9.46289 25.5H14.4958H20.5353ZM20.5353 25.5V26.5C20.5353 27.2956 20.2171 28.0587 19.6508 28.6213C19.0845 29.1839 18.3164 29.5 17.5155 29.5C16.7146 29.5 15.9466 29.1839 15.3802 28.6213C14.8139 28.0587 14.4958 27.2956 14.4958 26.5V25.5H20.5353Z" stroke="#2D374F" stroke-width="1.7" stroke-linecap="round" stroke-linejoin="round"/>
<circle cx="22.9629" cy="13" r="5.15" fill="#FF9C01" stroke="white" stroke-width="0.7"/>
</svg>
