<svg width="23" height="23" viewBox="0 0 23 23" fill="none" xmlns="http://www.w3.org/2000/svg">
<g clip-path="url(#clip0_171_76)">
<path fill-rule="evenodd" clip-rule="evenodd" d="M8.35197 3.5041C8.09563 3.53057 7.985 3.54604 7.82514 3.57771C6.66562 3.80744 5.64452 4.53045 5.00308 5.57594C4.74357 5.9989 4.5443 6.51487 4.44636 7.01736C4.3827 7.34401 4.36798 7.50612 4.36798 7.88043C4.36798 8.24421 4.38234 8.40932 4.44097 8.7193C4.66499 9.90387 5.37252 10.9517 6.38987 11.6056C6.78823 11.8617 7.28831 12.0681 7.75437 12.1688C7.95438 12.212 8.22852 12.2508 8.33366 12.2508C8.47231 12.2508 8.38949 12.2679 8.18539 12.2814C6.18389 12.4134 4.32773 13.4074 3.06651 15.0225C2.10676 16.2515 1.56945 17.7329 1.50978 19.3144L1.5 19.5739H2.21405H2.92809L2.93789 19.3396C3.01776 17.4271 3.97133 15.7085 5.52758 14.6722C6.29833 14.159 7.10679 13.8681 8.08064 13.7535C8.32194 13.7251 9.00434 13.7298 9.25879 13.7616C10.0445 13.8597 10.734 14.0898 11.44 14.4895L11.5006 14.5238L11.5007 17.8362C11.5008 20.6825 11.5038 21.1659 11.5218 21.2711C11.6274 21.8883 12.0958 22.3677 12.6987 22.4758C12.879 22.5081 20.1192 22.5081 20.2994 22.4758C20.9023 22.3677 21.3707 21.8883 21.4763 21.2711C21.5079 21.0867 21.5079 13.676 21.4763 13.4915C21.3685 12.8614 20.8755 12.37 20.2617 12.2807C20.1785 12.2686 19.145 12.2653 16.4348 12.2685L12.7218 12.2728L12.6005 12.3074C12.3627 12.3753 12.1648 12.4912 11.9887 12.6658C11.9096 12.7443 11.7696 12.9173 11.736 12.9781C11.7349 12.9802 11.6413 12.9398 11.5282 12.8884C10.7698 12.544 9.94232 12.3368 9.10406 12.2814C8.89993 12.2679 8.81716 12.2508 8.95578 12.2508C8.99597 12.2508 9.10395 12.2408 9.19574 12.2285C10.1185 12.1046 10.956 11.6873 11.6275 11.0167C12.3438 10.3013 12.7801 9.39847 12.903 8.3774C12.9269 8.17858 12.9269 7.58227 12.903 7.38346C12.7687 6.26742 12.2469 5.27186 11.4136 4.54169C10.7898 3.99504 10.0307 3.64879 9.19994 3.53189C9.04555 3.51017 8.47444 3.49144 8.35197 3.5041ZM8.97318 4.97829C9.40098 5.03119 9.8325 5.18477 10.1677 5.40341C11.0819 5.99971 11.5921 7.06645 11.4862 8.16025C11.3504 9.56294 10.2885 10.6498 8.91811 10.7888C7.61206 10.9212 6.37223 10.1092 5.94786 8.84332C5.47568 7.43492 6.09368 5.8989 7.39311 5.25113C7.87179 5.01251 8.44687 4.9132 8.97318 4.97829ZM20.0692 14.458V15.1888H16.4991H12.9289V14.458V13.7271H16.4991H20.0692V14.458ZM14.357 17.3813V18.1122H16.4991H18.6412V17.3813V16.6505H19.3552H20.0692V18.843V21.0355H16.4991H12.9289V18.843V16.6505H13.6429H14.357V17.3813Z" fill="#A7B3C3"/>
</g>
<defs>
<clipPath id="clip0_171_76">
<rect width="22" height="22" fill="white" transform="translate(0.5 0.5)"/>
</clipPath>
</defs>
</svg>
