<svg width="23" height="22" viewBox="0 0 23 22" fill="none" xmlns="http://www.w3.org/2000/svg">
<path fill-rule="evenodd" clip-rule="evenodd" d="M2.17183 1.04808C2.08499 1.07115 1.92735 1.16627 1.82158 1.25939C1.48579 1.55505 1.50009 1.36481 1.50009 5.53996C1.50009 8.21405 1.5137 9.27011 1.55008 9.41451C1.61871 9.68719 1.91765 9.9862 2.19025 10.0549C2.33462 10.0912 3.39039 10.1049 6.06378 10.1049C10.2359 10.1049 10.0478 10.1189 10.3421 9.78452C10.4409 9.6722 10.5298 9.51563 10.5577 9.40472C10.6245 9.13949 10.6245 1.96263 10.5577 1.6974C10.5298 1.5865 10.4409 1.42992 10.3421 1.31761C10.0472 0.982502 10.2405 0.996674 6.03429 1.00165C3.74711 1.00438 2.26935 1.02212 2.17183 1.04808ZM13.064 1.04808C12.9772 1.07115 12.8195 1.16627 12.7137 1.25939C12.378 1.55505 12.3923 1.36481 12.3923 5.53996C12.3923 8.21405 12.4059 9.27011 12.4422 9.41451C12.5109 9.68719 12.8098 9.9862 13.0824 10.0549C13.2268 10.0912 14.2826 10.1049 16.9559 10.1049C21.128 10.1049 20.94 10.1189 21.2342 9.78452C21.3331 9.6722 21.422 9.51563 21.4499 9.40472C21.5167 9.13949 21.5167 1.96263 21.4499 1.6974C21.422 1.5865 21.3331 1.42992 21.2342 1.31761C20.9394 0.982502 21.1327 0.996674 16.9265 1.00165C14.6393 1.00438 13.1615 1.02212 13.064 1.04808ZM8.77572 5.55106V8.27483H6.05267H3.32963V5.55106V2.8273H6.05267H8.77572V5.55106ZM19.6679 5.55106V8.27483H16.9448H14.2218V5.55106V2.8273H16.9448H19.6679V5.55106ZM2.17183 11.9431C2.08499 11.9662 1.92735 12.0613 1.82158 12.1544C1.48579 12.4501 1.50009 12.2599 1.50009 16.435C1.50009 19.1091 1.5137 20.1652 1.55008 20.3096C1.61871 20.5822 1.91765 20.8813 2.19025 20.9499C2.33462 20.9863 3.39039 20.9999 6.06378 20.9999C10.2359 20.9999 10.0478 21.014 10.3421 20.6796C10.4409 20.5673 10.5298 20.4107 10.5577 20.2998C10.6245 20.0346 10.6245 12.8577 10.5577 12.5925C10.5298 12.4816 10.4409 12.325 10.3421 12.2127C10.0472 11.8776 10.2405 11.8917 6.03429 11.8967C3.74711 11.8994 2.26935 11.9172 2.17183 11.9431ZM16.413 11.9407C15.7139 12.0291 14.9732 12.3077 14.3868 12.7031C14.011 12.9564 13.4988 13.4629 13.2408 13.8362C12.1375 15.4326 12.1388 17.4614 13.2439 19.0605C13.4973 19.4272 14.0472 19.9697 14.4048 20.206C15.7472 21.0927 17.4283 21.2265 18.8372 20.5589C19.8501 20.079 20.5769 19.3537 21.0508 18.3499C21.5044 17.3894 21.5992 16.3316 21.3264 15.2758C21.2146 14.8428 20.844 14.0803 20.5716 13.7224C19.8031 12.7129 18.6772 12.0805 17.3916 11.936C16.957 11.8872 16.8317 11.8878 16.413 11.9407ZM8.77572 16.4461V19.1699H6.05267H3.32963V16.4461V13.7224H6.05267H8.77572V16.4461ZM17.5192 13.7862C18.2902 13.9475 19.006 14.5015 19.3615 15.2119C19.9035 16.2953 19.7109 17.5019 18.8579 18.3654C17.8017 19.4348 16.0976 19.4341 15.0276 18.3639C13.9582 17.2941 13.9568 15.5958 15.0243 14.5333C15.6965 13.8644 16.6001 13.5938 17.5192 13.7862Z" fill="#A7B3C3"/>
</svg>
