<svg width="23" height="23" viewBox="0 0 23 23" fill="none" xmlns="http://www.w3.org/2000/svg">
<path fill-rule="evenodd" clip-rule="evenodd" d="M10.836 4.01033C10.4482 4.05081 9.8991 4.147 9.52066 4.24073C6.81401 4.91123 4.58003 7.0653 3.80704 9.75006C3.56518 10.59 3.49856 11.0831 3.50002 12.0225C3.50142 12.9139 3.55931 13.3538 3.78152 14.1616C4.51638 16.8332 6.66799 18.984 9.34055 19.7186C10.1413 19.9387 10.588 19.9974 11.4804 19.9999C12.3463 20.0023 12.7083 19.9601 13.4816 19.7667C15.7039 19.2108 17.6382 17.6489 18.6848 15.5654C19.0059 14.9261 19.2978 13.9898 19.4324 13.1677C19.5216 12.6222 19.5227 11.4327 19.4345 10.8594C19.1647 9.10615 18.3999 7.59033 17.1576 6.34674C15.9285 5.11636 14.3964 4.34011 12.6797 4.07794C12.3186 4.02279 11.1332 3.97934 10.836 4.01033ZM12.5902 5.22107C13.3147 5.35001 13.8332 5.51474 14.4645 5.81642C17.1148 7.08305 18.6645 9.88791 18.3186 12.7921C18.0353 15.1717 16.5803 17.1935 14.416 18.2154C12.5456 19.0986 10.4048 19.0906 8.53215 18.1934C7.09762 17.5061 5.99191 16.4001 5.30666 14.9673C5.00516 14.3368 4.84477 13.8312 4.70744 13.0782C4.62067 12.6025 4.62067 11.4068 4.70744 10.931C4.84477 10.1781 5.00516 9.6724 5.30666 9.04194C5.74166 8.13239 6.3199 7.38384 7.07703 6.75024C8.11992 5.87747 9.36239 5.34285 10.7465 5.17125C11.1294 5.12377 12.2071 5.1529 12.5902 5.22107ZM11.0031 8.05137C10.356 8.1918 9.74559 8.66822 9.46173 9.25441C9.35018 9.48484 9.31452 9.60129 9.31452 9.73542C9.31452 10.0769 9.58109 10.3116 9.93082 10.278C10.1692 10.2551 10.276 10.1677 10.4243 9.87363C10.5742 9.57656 10.7718 9.36796 11.015 9.25001C11.2698 9.12647 11.7303 9.12465 11.9637 9.24625C12.2337 9.38686 12.376 9.52167 12.5031 9.75736C12.6144 9.96363 12.6246 10.0084 12.6239 10.2869C12.6232 10.5469 12.609 10.6181 12.5261 10.7777C12.3917 11.0364 12.2327 11.1834 11.8908 11.3654C11.2225 11.721 10.8957 12.302 10.9307 13.0722C10.9447 13.3807 10.9923 13.4832 11.1899 13.6307C11.3285 13.7342 11.6681 13.7342 11.8067 13.6307C12.0067 13.4815 12.0471 13.3887 12.0711 13.0245C12.0991 12.5986 12.1378 12.541 12.5393 12.327C13.4678 11.8319 13.9536 10.8075 13.7323 9.81079C13.4571 8.57081 12.2363 7.78383 11.0031 8.05137ZM11.2638 14.3433C11.1174 14.4097 10.9693 14.5919 10.9416 14.7395C10.9291 14.8058 10.9245 15.0376 10.9312 15.2549C10.9414 15.586 10.9553 15.6658 11.0172 15.7486C11.1576 15.9363 11.272 15.9948 11.4983 15.9948C11.7247 15.9948 11.8391 15.9362 11.9794 15.7484C12.0456 15.6598 12.0532 15.5987 12.0532 15.1538C12.0532 14.6148 12.035 14.557 11.812 14.3906C11.6935 14.3022 11.4087 14.2776 11.2638 14.3433Z" fill="#A7B3C3"/>
</svg>
