<svg width="23" height="22" viewBox="0 0 23 22" fill="none" xmlns="http://www.w3.org/2000/svg">
<g clip-path="url(#clip0_171_105)">
<path fill-rule="evenodd" clip-rule="evenodd" d="M10.6246 0.454361C10.0035 0.976101 8.13975 2.72642 7.91278 3.00112C7.77214 3.17139 7.76636 3.19623 7.83807 3.32288C7.88082 3.39832 9.10043 4.56301 10.5484 5.91106L13.181 8.36206L12.4234 9.09333C12.0047 9.4975 11.6134 9.92466 11.5485 10.0483C11.3219 10.4806 11.5453 11.1077 12.0169 11.3626C12.2209 11.4729 12.361 11.4966 13.0855 11.5434C14.4548 11.632 16.7143 11.7002 18.2755 11.7003C19.6776 11.7003 19.7503 11.6955 19.9562 11.5886C20.0747 11.5272 20.2406 11.3849 20.3251 11.2725C20.4697 11.0802 20.4799 11.0298 20.4979 10.422C20.5205 9.661 20.355 4.96539 20.2867 4.42666C20.2608 4.22232 20.1921 3.98015 20.1341 3.8885C19.8575 3.45123 19.156 3.26089 18.6517 3.48627C18.5045 3.55206 18.0779 3.88491 17.6283 4.28482L16.8572 4.97057L14.5545 2.83994C12.0417 0.514915 11.4475 0 11.2774 0C11.2144 0 10.9292 0.198443 10.6246 0.454361ZM13.8579 3.22076C15.2675 4.51236 16.5134 5.63425 16.6267 5.7139C16.7724 5.81638 16.867 5.8485 16.9509 5.82392C17.016 5.80483 17.4935 5.41036 18.0121 4.94732C18.8436 4.20482 18.9767 4.10536 19.1385 4.10536C19.3681 4.10536 19.4913 4.22637 19.5319 4.49158C19.575 4.77279 19.7283 9.14829 19.7283 10.0954C19.7283 10.6509 19.7089 10.881 19.6588 10.9178C19.6207 10.9459 19.4717 10.9846 19.3279 11.0038C18.89 11.0623 12.7045 10.8575 12.4749 10.7769C12.3055 10.7174 12.2049 10.5453 12.2477 10.3882C12.266 10.3209 12.6656 9.89906 13.1357 9.45075C13.6058 9.00239 14.0197 8.58534 14.0553 8.52386C14.0909 8.46239 14.1026 8.36104 14.0812 8.29858C14.0598 8.23618 12.8399 7.07015 11.3703 5.70748L8.69825 3.22989L9.97423 2.05114C10.676 1.40285 11.2603 0.87239 11.2726 0.87239C11.2849 0.87239 12.4482 1.92916 13.8579 3.22076ZM2.29913 8.31664C2.03063 8.38875 1.68198 8.69803 1.57342 8.96052C1.48209 9.18123 1.48025 9.33211 1.54423 11.359C1.66553 15.2009 1.7006 15.7364 1.85092 16.0394C2.03981 16.4204 2.41403 16.6281 2.90721 16.6256C3.30328 16.6236 3.5671 16.4633 4.37213 15.7352L5.13636 15.0441L7.69343 17.39C9.09982 18.6802 10.3441 19.8009 10.4584 19.8804C10.6194 19.9925 10.7005 20.0171 10.8183 19.9898C10.9739 19.9538 13.9532 17.2503 14.14 16.9756C14.2017 16.8849 14.2204 16.7962 14.1939 16.719C14.1717 16.6542 12.9525 15.4875 11.4846 14.1264L8.81571 11.6517L9.5731 10.9329C9.98968 10.5375 10.3813 10.1222 10.4434 10.0099C10.7257 9.49894 10.4322 8.76875 9.865 8.57087C9.62902 8.48856 8.52809 8.42764 5.68469 8.33969C2.89704 8.25342 2.54366 8.25101 2.29913 8.31664ZM6.49828 9.08337C8.16454 9.139 9.54597 9.18483 9.5681 9.18513C9.62891 9.18606 9.778 9.47441 9.778 9.591C9.778 9.65351 9.42857 10.0297 8.8818 10.5558C8.38896 11.03 7.96003 11.4692 7.92879 11.5318C7.88199 11.6253 7.90028 11.68 8.03169 11.8397C8.11963 11.9465 9.34141 13.103 10.7469 14.4098L13.3021 16.7857L12.0146 17.9743L10.7271 19.1629L8.04208 16.6962C6.56537 15.3394 5.29996 14.2127 5.23014 14.1922C5.05153 14.1399 4.96054 14.2051 3.94499 15.1126C3.19493 15.7829 3.02822 15.9083 2.88647 15.9083C2.64222 15.9083 2.51053 15.7585 2.47301 15.4378C2.42587 15.0347 2.26222 9.88746 2.28328 9.46928C2.31191 8.90151 1.9756 8.9323 6.49828 9.08337Z" fill="#A7B3C3" stroke="#A7B3C3" stroke-width="0.2"/>
</g>
<defs>
<clipPath id="clip0_171_105">
<rect width="22" height="22" fill="white" transform="translate(0.5)"/>
</clipPath>
</defs>
</svg>
