<svg width="23" height="22" viewBox="0 0 23 22" fill="none" xmlns="http://www.w3.org/2000/svg">
<path fill-rule="evenodd" clip-rule="evenodd" d="M7.50486 0.777955C5.30271 1.43043 4.88297 1.57627 4.77344 1.7265C4.67885 1.85641 4.48016 2.87322 4.03434 5.50858C3.69898 7.49103 3.40841 9.18599 3.38855 9.27523C3.35411 9.4303 3.32082 9.43744 2.63395 9.43744C1.935 9.43744 1.90964 9.4432 1.70652 9.64815C1.39652 9.96095 1.44103 10.4023 1.80297 10.6042C1.89049 10.653 2.22964 10.7105 2.55664 10.732L3.15121 10.7711L3.94554 12.55C4.76073 14.3757 4.83196 14.4837 5.22098 14.4837C5.33879 14.4837 5.35558 14.5135 5.31235 14.6459C5.22512 14.9129 5.26491 15.5228 5.38916 15.8237C5.53355 16.1734 5.94643 16.6127 6.30723 16.8006C7.58545 17.4661 9.12574 16.3718 8.97392 14.906L8.93019 14.4837H11.5H14.0698L14.0261 14.906C13.9636 15.5088 14.1395 16.0004 14.5748 16.4397C15.4979 17.371 17.0455 17.0764 17.5874 15.8662C17.731 15.5457 17.7813 14.9326 17.6876 14.6459C17.6444 14.5135 17.6612 14.4837 17.779 14.4837C18.168 14.4837 18.2393 14.3757 19.0545 12.55L19.8488 10.7711L20.4434 10.732C20.7704 10.7105 21.1095 10.653 21.197 10.6042C21.559 10.4023 21.6035 9.96095 21.2935 9.64815C21.0907 9.44356 21.064 9.43744 20.376 9.43744H19.6672L18.361 5.9812C17.5308 3.78443 16.9978 2.47097 16.8984 2.37675C16.7508 2.23682 16.658 2.2286 15.2463 2.22954L13.7505 2.23055L13.2948 2.62149L12.839 3.01235L12.4713 2.53037C12.269 2.26522 11.8039 1.65088 11.4378 1.16507C10.721 0.214147 10.494 -0.00990616 10.2579 0.00033048C10.1748 0.00393493 8.93591 0.353855 7.50486 0.777955ZM11.0356 2.71023C12.3247 4.43755 12.4154 4.53538 12.7281 4.53538C12.9872 4.53538 13.1614 4.42328 13.8758 3.79647L14.2661 3.45404H15.1616C15.9481 3.45404 16.0632 3.4694 16.1065 3.5802C16.3883 4.30116 18.2431 9.21598 18.2693 9.31128C18.3021 9.4308 17.9439 9.43744 11.4669 9.43744H4.62991L4.66985 9.23919C4.69178 9.13019 4.95377 7.59736 5.25205 5.83298C5.57863 3.90085 5.82783 2.61168 5.87863 2.59143C6.03645 2.52857 9.89213 1.38091 9.96393 1.37543C10.0032 1.3724 10.4855 1.97305 11.0356 2.71023ZM7.94904 5.85446C7.22673 6.58328 7.14185 6.69553 7.14185 6.92218C7.14185 7.34418 7.54644 7.64919 7.93932 7.5234C8.02991 7.49435 8.30555 7.27541 8.55175 7.03687L8.99942 6.60311L9.45353 7.04307C9.95457 7.52852 10.1804 7.62447 10.5039 7.4893C10.761 7.38189 10.857 7.22286 10.857 6.90451C10.857 6.70043 10.7491 6.56 10.0498 5.85446C9.33736 5.13559 9.21411 5.04 8.99942 5.04C8.78473 5.04 8.66149 5.13559 7.94904 5.85446ZM14.2094 7.12503C13.6345 7.70513 14.4422 8.5591 15.0346 7.99753C15.3344 7.71335 15.2769 7.20376 14.9242 7.01978C14.6244 6.86335 14.4422 6.89017 14.2094 7.12503ZM17.943 11.9606L17.3975 13.1861H11.5H5.60249L5.05701 11.9606L4.51145 10.735H11.5H18.4885L17.943 11.9606ZM7.53801 14.6606C7.78943 14.9143 7.78314 15.355 7.52515 15.5597C7.20129 15.8168 6.77476 15.7501 6.60337 15.4156C6.44833 15.1131 6.47491 14.9292 6.70768 14.6944C6.97417 14.4255 7.29224 14.4126 7.53801 14.6606ZM16.2923 14.6944C16.5251 14.9292 16.5517 15.1131 16.3966 15.4156C16.2252 15.7501 15.7987 15.8168 15.4748 15.5597C15.3279 15.4432 15.2866 15.3475 15.2866 15.124C15.2866 14.5292 15.8782 14.2765 16.2923 14.6944Z" fill="#A7B3C3"/>
</svg>
