<svg width="39" height="39" viewBox="0 0 39 39" fill="none" xmlns="http://www.w3.org/2000/svg">
<path d="M30.3811 34.5992C31.1364 34.0489 31.8507 33.4446 32.5184 32.7909C32.5652 32.7444 32.6117 32.7003 32.6585 32.6539C34.7273 30.5875 36.295 28.0747 37.2412 25.3083H12.1455C11.3043 25.3084 10.4713 25.1427 9.69413 24.8209C8.91694 24.499 8.21078 24.0273 7.616 23.4325C7.02099 22.8378 6.54914 22.1317 6.22732 21.3546C5.90552 20.5776 5.73978 19.7447 5.73978 18.9036V15.0857H2.42408C1.25921 15.0857 0.235708 15.8989 0.111132 17.0569C0.0371642 17.7445 1.00082e-07 18.436 6.98435e-08 19.1285C-0.000301408 22.657 0.975395 26.1168 2.81932 29.1253C4.66325 32.1338 7.30387 34.5735 10.4484 36.1748C13.5932 37.7761 17.1196 38.4763 20.6376 38.1983C24.1557 37.9203 27.5283 36.6746 30.3823 34.5992H30.3811Z" fill="#408AFB"/>
<path d="M38.4779 19.1277C38.4776 15.5994 37.5013 12.1399 35.6569 9.13181C33.8126 6.12372 31.1722 3.68421 28.0275 2.08308C24.8829 0.481945 21.3566 -0.218428 17.8387 0.0594082C14.3207 0.337243 10.9481 1.58247 8.09392 3.65737C7.33889 4.20886 6.62464 4.8141 5.95684 5.4684C5.91156 5.51337 5.86628 5.55744 5.81797 5.60241C3.74944 7.66839 2.18144 10.1804 1.23412 12.9458H26.3322C28.0309 12.9465 29.66 13.6218 30.8609 14.8231C32.062 16.0244 32.7367 17.6535 32.7367 19.352V23.17H36.0542C37.2182 23.17 38.2413 22.3579 38.3663 21.2007C38.4407 20.5128 38.4779 19.8207 38.4779 19.1277Z" fill="#0064AF"/>
</svg>
