<svg width="23" height="23" viewBox="0 0 23 23" fill="none" xmlns="http://www.w3.org/2000/svg">
<path fill-rule="evenodd" clip-rule="evenodd" d="M8.18796 2.51774C6.58372 2.65561 5.12434 3.59273 4.30115 5.01358C4.09322 5.37245 3.89497 5.87065 3.77402 6.33832C3.64131 6.85149 3.60677 7.80251 3.70106 8.34735C3.87219 9.33599 4.31702 10.2414 4.99362 10.978C5.13325 11.13 5.24747 11.2627 5.24747 11.2728C5.24747 11.2829 5.10988 11.3718 4.94168 11.4703C3.32666 12.4162 2.09635 14.1353 1.67693 16.032C1.52073 16.7385 1.48911 17.2218 1.50291 18.6942L1.51549 20.0398L1.63687 20.1911C1.70362 20.2743 1.81792 20.3779 1.89088 20.4212C2.02253 20.4994 2.09377 20.5 11.5 20.5C20.9062 20.5 20.9775 20.4994 21.1091 20.4212C21.1821 20.3779 21.2964 20.2743 21.3631 20.1911L21.4845 20.0398L21.4971 18.6942C21.5109 17.2218 21.4793 16.7385 21.3231 16.032C20.9036 14.1353 19.6733 12.4162 18.0583 11.4703C17.8901 11.3718 17.7525 11.2825 17.7525 11.2719C17.7525 11.2614 17.8536 11.1438 17.9772 11.0106C18.6232 10.3143 19.0601 9.48296 19.2631 8.56401C19.3572 8.13778 19.3754 7.18703 19.2985 6.71424C18.8813 4.148 16.5862 2.32747 14.0126 2.52109C13.1742 2.58415 12.3137 2.87018 11.6961 3.29113C11.6213 3.34215 11.5389 3.38386 11.5131 3.38386C11.4873 3.38386 11.3221 3.29566 11.1461 3.18789C10.31 2.67602 9.21998 2.42906 8.18796 2.51774ZM9.20536 3.99406C10.578 4.23534 11.663 5.20558 12.0713 6.55691C12.168 6.87697 12.1779 6.9677 12.1788 7.5398C12.1797 8.11804 12.1709 8.19935 12.0718 8.52461C11.2796 11.1248 8.17405 11.992 6.21173 10.161C5.50003 9.49691 5.09057 8.55625 5.08678 7.57663C5.08494 7.09836 5.13371 6.75915 5.25638 6.39741C5.74935 4.94358 7.08114 3.96861 8.61286 3.94017C8.7551 3.93753 9.02173 3.96176 9.20536 3.99406ZM15.232 4.05299C16.544 4.38929 17.5734 5.47735 17.8553 6.82561C17.9325 7.19495 17.9281 7.91147 17.8465 8.27333C17.6442 9.16983 17.1723 9.9047 16.4509 10.4464C16.1769 10.6523 15.5913 10.9334 15.232 11.0316C14.7904 11.1524 13.9576 11.1536 13.5233 11.0341C13.2357 10.9549 12.6887 10.7357 12.621 10.6725C12.6034 10.6561 12.6847 10.4941 12.8017 10.3125C13.3741 9.42308 13.6205 8.59753 13.6233 7.55949C13.6261 6.51752 13.372 5.64769 12.8119 4.78136C12.6922 4.59625 12.5942 4.43679 12.5942 4.42706C12.5942 4.34099 13.4733 4.03325 13.8838 3.97562C14.2487 3.92441 14.8692 3.96002 15.232 4.05299ZM7.0226 12.3038C7.52347 12.4776 8.06322 12.5659 8.62294 12.5656C9.21068 12.5654 9.63264 12.5001 10.1955 12.3226L10.5909 12.1979L10.9771 12.3823C11.7216 12.7377 12.2508 13.1196 12.7944 13.6938C13.4936 14.4325 13.9484 15.2878 14.2035 16.3441C14.3181 16.8183 14.3232 16.8776 14.342 17.9493L14.3615 19.0622H8.65166H2.94185V18.0722C2.94185 16.919 2.99031 16.5209 3.21454 15.8309C3.65734 14.4683 4.60108 13.3066 5.82958 12.6117C6.08973 12.4646 6.64718 12.2091 6.70998 12.2083C6.72983 12.208 6.87051 12.251 7.0226 12.3038ZM16.8087 12.426C17.4052 12.7108 17.9154 13.0759 18.3997 13.5643C19.0657 14.236 19.4958 14.9395 19.7855 15.8309C20.0097 16.5209 20.0582 16.919 20.0582 18.0722V19.0622H17.9344H15.8106L15.7868 17.9887C15.7625 16.8979 15.7199 16.4941 15.5609 15.8517C15.2859 14.7401 14.7261 13.6839 13.9474 12.8071C13.8265 12.6709 13.7274 12.5556 13.7274 12.551C13.7274 12.5464 13.9735 12.5484 14.2743 12.5555C14.8834 12.5698 15.4331 12.488 15.9357 12.3084C16.0921 12.2525 16.2572 12.2186 16.3219 12.2291C16.384 12.2392 16.6031 12.3278 16.8087 12.426Z" fill="#A7B3C3"/>
</svg>
