<svg width="25" height="24" viewBox="0 0 25 24" fill="none" xmlns="http://www.w3.org/2000/svg">
<path d="M2.5 20H22.5V22H2.5V20ZM4.5 12H6.5V19H4.5V12ZM9.5 12H11.5V19H9.5V12ZM13.5 12H15.5V19H13.5V12ZM18.5 12H20.5V19H18.5V12ZM2.5 7L12.5 2L22.5 7V11H2.5V7ZM4.5 8.236V9H20.5V8.236L12.5 4.236L4.5 8.236ZM12.5 8C12.2348 8 11.9804 7.89464 11.7929 7.70711C11.6054 7.51957 11.5 7.26522 11.5 7C11.5 6.73478 11.6054 6.48043 11.7929 6.29289C11.9804 6.10536 12.2348 6 12.5 6C12.7652 6 13.0196 6.10536 13.2071 6.29289C13.3946 6.48043 13.5 6.73478 13.5 7C13.5 7.26522 13.3946 7.51957 13.2071 7.70711C13.0196 7.89464 12.7652 8 12.5 8Z" fill="#A7B3C3"/>
</svg>
