<svg width="15" height="18" viewBox="0 0 15 18" fill="none" xmlns="http://www.w3.org/2000/svg">
<path fill-rule="evenodd" clip-rule="evenodd" d="M1.96929 0.525579C1.48255 0.642844 1.09652 1.07486 1.01275 1.59611C0.970429 1.85943 0.9713 15.9516 1.01365 16.2154C1.0842 16.6548 1.34304 16.9996 1.75 17.196L1.96548 17.3H7.98321H14.0009L14.2472 17.176C14.6385 16.9789 14.88 16.6471 14.9503 16.2096C14.9918 15.9513 14.9918 1.8544 14.9503 1.59611C14.88 1.15857 14.6385 0.826727 14.2472 0.629632L14.0009 0.505662L8.04772 0.500535C4.52632 0.497479 2.04335 0.507733 1.96929 0.525579ZM13.6911 8.90283V16.0347H7.98153H2.27193V8.90283V1.77099H7.98153H13.6911V8.90283ZM10.2557 3.13955C10.2025 3.16775 9.38219 3.98068 8.43288 4.94601L6.7068 6.70116L6.25549 6.23749C6.00723 5.98249 5.75743 5.75315 5.70033 5.72791C5.47679 5.62902 5.12418 5.69708 4.97741 5.86749C4.82251 6.04727 4.77293 6.36077 4.86493 6.57864C4.88951 6.63681 5.24876 7.02693 5.6633 7.44554C6.31007 8.09867 6.43449 8.21002 6.54 8.23014C6.73022 8.26642 6.93845 8.22928 7.07099 8.13542C7.13712 8.08858 8.05785 7.16614 9.11709 6.08559C10.4481 4.72771 11.0584 4.08315 11.0929 3.99869C11.2249 3.67545 11.0995 3.29704 10.8137 3.15608C10.6439 3.07237 10.3963 3.06504 10.2557 3.13955ZM4.09448 10.2007C4.07674 10.2068 4.02258 10.2206 3.9741 10.2315C3.76401 10.2787 3.53217 10.5987 3.53069 10.8437C3.52949 11.0378 3.67459 11.2893 3.84762 11.3929L3.99771 11.4828H7.35251C10.6493 11.4828 10.7092 11.4816 10.8168 11.4171C10.877 11.3809 10.9707 11.2953 11.025 11.2269C11.1064 11.1242 11.126 11.0661 11.1367 10.8955C11.1578 10.5577 10.9866 10.3076 10.675 10.2209C10.5855 10.1959 9.56428 10.1857 7.33638 10.1874C5.57108 10.1887 4.11223 10.1947 4.09448 10.2007ZM3.89229 12.8655C3.4953 13.0671 3.41865 13.5637 3.73484 13.8857C3.94168 14.0962 3.98616 14.1005 5.87365 14.0891C7.69621 14.0781 7.60944 14.0887 7.81398 13.8513C8.08379 13.5383 7.99576 13.0411 7.6385 12.8605C7.52096 12.801 7.41467 12.7969 5.78788 12.7884L4.06197 12.7793L3.89229 12.8655Z" fill="#6C6C6C"/>
</svg>
